HIERARCHY
ROOT Hips
{
	OFFSET 0.00000 0.00000 0.00000
	CHANNELS 6 Xposition Yposition Zposition Zrotation Yrotation Xrotation 
	JOINT LHipJoint
	{
		OFFSET 0 0 0
		CHANNELS 3 Zrotation Yrotation Xrotation
		JOINT LeftUpLeg
		{
			OFFSET 1.48831 -1.59570 0.95625
			CHANNELS 3 Zrotation Yrotation Xrotation
			JOINT LeftLeg
			{
				OFFSET 2.20856 -6.06797 0.00000
				CHANNELS 3 Zrotation Yrotation Xrotation
				JOINT LeftFoot
				{
					OFFSET 2.62924 -7.22379 0.00000
					CHANNELS 3 Zrotation Yrotation Xrotation
					JOINT LeftToeBase
					{
						OFFSET 0.16802 -0.46163 2.41673
						CHANNELS 3 Zrotation Yrotation Xrotation
						End Site
						{
							OFFSET 0.00000 -0.00000 1.23760
						}
					}
				}
			}
		}
	}
	JOINT RHipJoint
	{
		OFFSET 0 0 0
		CHANNELS 3 Zrotation Yrotation Xrotation
		JOINT RightUpLeg
		{
			OFFSET -1.56796 -1.59570 0.95625
			CHANNELS 3 Zrotation Yrotation Xrotation
			JOINT RightLeg
			{
				OFFSET -2.29239 -6.29829 0.00000
				CHANNELS 3 Zrotation Yrotation Xrotation
				JOINT RightFoot
				{
					OFFSET -2.66963 -7.33475 0.00000
					CHANNELS 3 Zrotation Yrotation Xrotation
					JOINT RightToeBase
					{
						OFFSET -0.18185 -0.49964 2.34359
						CHANNELS 3 Zrotation Yrotation Xrotation
						End Site
						{
							OFFSET -0.00000 -0.00000 1.20477
						}
					}
				}
			}
		}
	}
	JOINT LowerBack
	{
		OFFSET 0 0 0
		CHANNELS 3 Zrotation Yrotation Xrotation
		JOINT Spine
		{
			OFFSET 0.03505 2.15832 -0.34324
			CHANNELS 3 Zrotation Yrotation Xrotation
			JOINT Spine1
			{
				OFFSET -0.01089 2.17963 0.04689
				CHANNELS 3 Zrotation Yrotation Xrotation
				JOINT Neck
				{
					OFFSET 0 0 0
					CHANNELS 3 Zrotation Yrotation Xrotation
					JOINT Neck1
					{
						OFFSET 0.04686 1.69404 0.22159
						CHANNELS 3 Zrotation Yrotation Xrotation
						JOINT Head
						{
							OFFSET 0.00265 1.69305 -0.01513
							CHANNELS 3 Zrotation Yrotation Xrotation
							End Site
							{
								OFFSET -0.00415 1.80215 -0.03034
							}
						}
					}
				}
				JOINT LeftShoulder
				{
					OFFSET 0 0 0
					CHANNELS 3 Zrotation Yrotation Xrotation
					JOINT LeftArm
					{
						OFFSET 3.67184 1.11724 -0.19002
						CHANNELS 3 Zrotation Yrotation Xrotation
						JOINT LeftForeArm
						{
							OFFSET 5.17714 -0.00000 -0.00000
							CHANNELS 3 Zrotation Yrotation Xrotation
							JOINT LeftHand
							{
								OFFSET 3.43679 -0.00000 -0.00000
								CHANNELS 3 Zrotation Yrotation Xrotation
								JOINT LeftFingerBase
								{
									OFFSET 0 0 0
									CHANNELS 3 Zrotation Yrotation Xrotation
									JOINT LeftHandIndex1
									{
										OFFSET 0.57312 -0.00000 -0.00000
										CHANNELS 3 Zrotation Yrotation Xrotation
										End Site
										{
											OFFSET 0.46206 -0.00000 -0.00000
										}
									}
								}
								JOINT LThumb
								{
									OFFSET 0 0 0
									CHANNELS 3 Zrotation Yrotation Xrotation
									End Site
									{
										OFFSET 0.46912 -0.00000 0.46912
									}
								}
							}
						}
					}
				}
				JOINT RightShoulder
				{
					OFFSET 0 0 0
					CHANNELS 3 Zrotation Yrotation Xrotation
					JOINT RightArm
					{
						OFFSET -3.59596 0.95831 -0.26050
						CHANNELS 3 Zrotation Yrotation Xrotation
						JOINT RightForeArm
						{
							OFFSET -5.23908 -0.00000 -0.00000
							CHANNELS 3 Zrotation Yrotation Xrotation
							JOINT RightHand
							{
								OFFSET -3.46485 -0.00000 -0.00000
								CHANNELS 3 Zrotation Yrotation Xrotation
								JOINT RightFingerBase
								{
									OFFSET 0 0 0
									CHANNELS 3 Zrotation Yrotation Xrotation
									JOINT RightHandIndex1
									{
										OFFSET -0.60875 -0.00000 -0.00000
										CHANNELS 3 Zrotation Yrotation Xrotation
										End Site
										{
											OFFSET -0.49079 -0.00000 -0.00000
										}
									}
								}
								JOINT RThumb
								{
									OFFSET 0 0 0
									CHANNELS 3 Zrotation Yrotation Xrotation
									End Site
									{
										OFFSET -0.49829 -0.00000 0.49829
									}
								}
							}
						}
					}
				}
			}
		}
	}
}
MOTION
Frames: 10
Frame Time: .0083333
43.0334 15.9844 16.6214 0 0 0 0 0 0 -21 0 0 0 0 0 0 0 0 0 0 0 0 0 0 21 0 0 0 0 0 0 0 0 0 0 0 0 0 0 0 0 0 0 0 0 0 0 -16 0 0 21 0 0 11 0 0 0 -8 0 0 0 0 0 0 0 0 0 0 0 0 0 0 0 0 0 0 0 0 8 0 0 0 0 0 0 0 0 0 0 0 0 0 0 0 0 0
43.0334 15.9844 16.6214 -174.5120 -40.7454 177.5090 0.0000 0.0000 0.0000 -18.5026 15.2992 -15.3907 2.1973 9.2655 26.6295 1.3817 0.8941 -22.5607 0.0025 -0.3255 -0.8944 0.0000 0.0000 0.0000 21.0257 8.6427 -20.7858 -5.6236 -14.0534 43.4517 -1.8688 -5.9167 -28.5056 -0.0101 -0.6480 1.7808 0.3870 -1.2592 3.6794 0.0116 -1.8813 4.9313 -0.1906 -1.0157 2.9980 1.1188 -0.6983 -5.6038 7.4001 -1.2006 -3.8942 2.1077 -0.7451 -0.2237 -0.0000 0.0000 0.0000 -87.4232 -3.6612 20.0619 9.5978 -16.1081 -1.3612 -0.0000 0.0000 -9.6668 18.7094 10.5726 3.5557 -7.1250 0.0000 -0.0000 -7.4038 41.0161 0.7319 -0.0000 0.0000 0.0000 89.6176 -2.4833 23.1228 -18.6503 28.9818 -4.8602 0.0000 0.0000 0.5819 -18.4907 -4.7097 1.5728 7.1250 -0.0000 -0.0000 6.7689 -34.8809 1.6917
43.0392 15.9846 16.6212 -174.5740 -40.7135 177.5260 0.0000 0.0000 0.0000 -18.5377 15.3104 -15.3651 2.1937 9.2584 26.6070 1.3785 0.9560 -22.5585 0.0030 -0.3522 -0.9678 0.0000 0.0000 0.0000 21.0109 8.6066 -20.5600 -5.6348 -14.0649 43.4980 -1.7380 -6.9930 -28.2539 -0.0008 -0.1875 0.5151 0.3252 -1.2265 3.6098 -0.0184 -1.8355 4.9104 -0.1887 -0.9932 3.0163 1.1290 -0.7480 -5.5791 7.3478 -1.2672 -3.7921 2.0872 -0.7729 -0.1942 -0.0000 -0.0000 0.0000 -87.3759 -3.6535 20.2669 9.6984 -16.2664 -1.3893 -0.0000 0.0000 -9.9182 18.7775 10.3131 3.4832 -7.1250 0.0000 -0.0000 -7.2996 40.7519 0.7693 -0.0000 -0.0000 0.0000 89.6783 -2.5291 22.7514 -18.4038 28.6711 -4.7414 0.0000 0.0000 0.8700 -18.4676 -4.6965 1.5663 7.1250 -0.0000 -0.0000 6.7864 -34.8660 1.6986
43.0437 15.9830 16.6204 -174.6360 -40.7112 177.5250 0.0000 0.0000 0.0000 -18.5674 15.3069 -15.3198 2.1932 9.2575 26.6041 1.3776 0.9603 -22.5529 0.0023 -0.3094 -0.8501 0.0000 0.0000 0.0000 21.0079 8.5452 -20.2807 -5.6209 -14.0506 43.4404 -1.8437 -6.3564 -28.5873 -0.0474 -1.4051 3.8641 0.2868 -1.2148 3.5485 -0.0556 -1.8180 4.8968 -0.2070 -0.9840 3.0365 1.0501 -0.7687 -5.5486 7.3852 -1.2913 -3.6623 2.1125 -0.7778 -0.1570 -0.0000 0.0000 0.0000 -87.2904 -3.7486 20.5501 9.7629 -16.3678 -1.4074 -0.0000 0.0000 -10.2380 18.7598 10.2399 3.4552 -7.1250 0.0000 -0.0000 -7.3026 40.6739 0.7837 -0.0000 0.0000 0.0000 89.7288 -2.5644 22.4174 -18.1481 28.3464 -4.6193 0.0000 0.0000 1.1117 -18.3791 -4.5865 1.5219 7.1250 -0.0000 -0.0000 6.8471 -34.7472 1.7339
43.0479 15.9829 16.6165 -174.6060 -40.7373 177.4680 0.0000 0.0000 0.0000 -18.5083 15.3261 -15.2829 2.1924 9.2558 26.5989 1.3760 0.9375 -22.5312 0.0025 -0.3255 -0.8943 0.0000 0.0000 0.0000 21.0760 8.5056 -19.9881 -5.5984 -14.0275 43.3477 -1.6721 -7.3099 -28.0011 -0.0129 -0.7332 2.0151 0.3038 -1.2124 3.4867 -0.0662 -1.8111 4.8647 -0.2285 -0.9785 3.0370 1.1025 -0.7802 -5.5819 7.3236 -1.3145 -3.5303 2.0819 -0.7831 -0.1103 -0.0000 -0.0000 0.0000 -87.2463 -3.7032 20.8180 9.9161 -16.6082 -1.4509 -0.0000 0.0000 -10.5586 18.8917 10.0843 3.4291 -7.1250 0.0000 -0.0000 -7.1615 40.5232 0.7951 -0.0000 -0.0000 0.0000 89.7532 -2.6761 22.1551 -17.9462 28.0882 -4.5239 0.0000 0.0000 1.2695 -18.4208 -4.6722 1.5540 7.1250 -0.0000 -0.0000 6.8222 -34.8385 1.7122
43.0522 15.9820 16.6133 -174.6250 -40.7480 177.4460 0.0000 0.0000 0.0000 -18.4948 15.3219 -15.2413 2.1926 9.2562 26.6000 1.3755 0.9479 -22.5307 0.0027 -0.3332 -0.9154 0.0000 0.0000 0.0000 21.1066 8.4683 -19.6820 -5.5645 -13.9926 43.2078 -1.6201 -7.5522 -27.7962 -0.0130 -0.7362 2.0233 0.2901 -1.2047 3.4187 -0.0877 -1.7977 4.8378 -0.2444 -0.9705 3.0470 1.0954 -0.7985 -5.5784 7.3030 -1.3408 -3.4078 2.0754 -0.7901 -0.0719 -0.0000 -0.0000 0.0000 -87.1888 -3.7025 21.0787 10.0573 -16.8292 -1.4915 -0.0000 0.0000 -10.8168 18.8191 10.1663 3.4424 -7.1250 0.0000 -0.0000 -7.2385 40.6024 0.7896 -0.0000 -0.0000 0.0000 89.7884 -2.7554 21.8529 -17.7245 27.8030 -4.4200 0.0000 0.0000 1.4735 -18.4159 -4.6796 1.5560 7.1250 -0.0000 -0.0000 6.8271 -34.8461 1.7122
43.0561 15.9808 16.6090 -174.6560 -40.7639 177.4330 0.0000 0.0000 0.0000 -18.4893 15.3121 -15.1935 2.1920 9.2551 26.5965 1.3749 0.9611 -22.5314 0.0029 -0.3460 -0.9506 0.0000 0.0000 0.0000 21.1281 8.4451 -19.3570 -5.5139 -13.9401 42.9981 -1.5965 -7.5672 -27.6423 -0.0141 -0.7672 2.1085 0.2715 -1.2002 3.3457 -0.1097 -1.7884 4.8087 -0.2580 -0.9647 3.0575 1.0836 -0.8120 -5.5850 7.2865 -1.3613 -3.2770 2.0712 -0.7937 -0.0293 0.0000 -0.0000 0.0000 -87.1307 -3.7026 21.3435 10.2165 -17.0775 -1.5379 -0.0000 0.0000 -11.0406 18.6743 10.4010 3.4917 -7.1250 0.0000 -0.0000 -7.4048 40.8342 0.7654 0.0000 -0.0000 0.0000 89.8189 -2.8358 21.5609 -17.5074 27.5218 -4.3192 0.0000 0.0000 1.6674 -18.4156 -4.6907 1.5597 7.1250 -0.0000 -0.0000 6.8286 -34.8577 1.7106
43.0596 15.9793 16.6036 -174.7060 -40.7803 177.4360 0.0000 0.0000 0.0000 -18.4995 15.2954 -15.1376 2.1905 9.2521 26.5870 1.3745 0.9836 -22.5368 0.0032 -0.3664 -1.0067 0.0000 0.0000 0.0000 21.1306 8.4415 -19.0285 -5.4515 -13.8749 42.7385 -1.5985 -7.4096 -27.5556 -0.0148 -0.7852 2.1579 0.2417 -1.1980 3.2655 -0.1334 -1.7820 4.7766 -0.2673 -0.9605 3.0693 1.0646 -0.8216 -5.5885 7.2731 -1.3762 -3.1487 2.0695 -0.7946 0.0119 0.0000 -0.0000 0.0000 -87.0759 -3.6990 21.6035 10.3920 -17.3505 -1.5899 -0.0000 0.0000 -11.2371 18.4802 10.7483 3.5666 -7.1250 0.0000 -0.0000 -7.6355 41.1780 0.7245 0.0000 -0.0000 0.0000 89.8430 -2.9189 21.2834 -17.2961 27.2465 -4.2220 0.0000 0.0000 1.8510 -18.4165 -4.7140 1.5675 7.1250 -0.0000 -0.0000 6.8303 -34.8821 1.7070
43.0624 15.9775 16.5973 -174.7890 -40.7968 177.4620 0.0000 0.0000 0.0000 -18.5349 15.2906 -15.0761 2.1870 9.2453 26.5656 1.3739 0.9966 -22.5369 0.0036 -0.3862 -1.0612 0.0000 0.0000 0.0000 21.1038 8.4549 -18.6943 -5.3749 -13.7939 42.4180 -1.6228 -7.1297 -27.5479 -0.0159 -0.8147 2.2392 0.1929 -1.1972 3.1785 -0.1613 -1.7773 4.7423 -0.2703 -0.9576 3.0830 1.0305 -0.8271 -5.5903 7.2708 -1.3846 -3.0201 2.0742 -0.7922 0.0530 -0.0000 0.0000 0.0000 -87.0257 -3.6961 21.8592 10.5758 -17.6351 -1.6451 -0.0000 0.0000 -11.4265 18.2734 11.1354 3.6489 -7.1250 0.0000 -0.0000 -7.8877 41.5606 0.6739 -0.0000 0.0000 0.0000 89.8617 -3.0012 21.0148 -17.0883 26.9740 -4.1273 0.0000 0.0000 2.0319 -18.4083 -4.7128 1.5663 7.1250 -0.0000 -0.0000 6.8371 -34.8805 1.7090
43.0648 15.9757 16.5900 -174.8940 -40.8127 177.5060 0.0000 0.0000 0.0000 -18.5886 15.3063 -15.0145 2.1814 9.2342 26.5306 1.3725 0.9943 -22.5243 0.0040 -0.4072 -1.1190 0.0000 0.0000 0.0000 21.0565 8.4819 -18.3627 -5.2866 -13.6994 42.0465 -1.6514 -6.8585 -27.5793 -0.0154 -0.8020 2.2042 0.1303 -1.1959 3.0851 -0.1921 -1.7718 4.7051 -0.2687 -0.9546 3.0977 0.9900 -0.8315 -5.5893 7.2731 -1.3911 -2.8917 2.0816 -0.7890 0.0935 0.0000 -0.0000 0.0000 -86.9798 -3.6919 22.1188 10.7626 -17.9235 -1.7021 -0.0000 0.0000 -11.6432 18.1197 11.4789 3.7259 -7.1250 0.0000 -0.0000 -8.0879 41.9017 0.6227 0.0000 -0.0000 0.0000 89.8781 -3.0846 20.7560 -16.8872 26.7088 -4.0365 0.0000 0.0000 2.2051 -18.3966 -4.7090 1.5640 7.1250 -0.0000 -0.0000 6.8462 -34.8760 1.7121
